<?xml version="1.0" encoding="utf-8"?>
<!-- Generator: Adobe Illustrator 22.1.0, SVG Export Plug-In . SVG Version: 6.00 Build 0)  -->
<svg version="1.1" id="Layer_1" xmlns="http://www.w3.org/2000/svg" xmlns:xlink="http://www.w3.org/1999/xlink" x="0px" y="0px"
	 viewBox="0 0 30 30" style="enable-background:new 0 0 30 30;" xml:space="preserve">
<g id="Layer_1_1_">
</g>
<g>
	<g>
		<path d="M20.8,0c0.1,0,0.1,0,0.2,0c0.2,2.1-0.6,3.7-1.6,4.8c-1,1.1-2.3,2.2-4.4,2.1c-0.1-2.1,0.7-3.5,1.6-4.7
			C17.5,1.2,19.2,0.2,20.8,0z"/>
		<path d="M27.2,22C27.2,22,27.2,22.1,27.2,22c-0.6,1.9-1.5,3.4-2.5,4.9c-1,1.3-2.1,3.1-4.2,3.1c-1.8,0-3-1.2-4.8-1.2
			c-2,0-3,1-4.8,1.2c-0.2,0-0.4,0-0.6,0c-1.3-0.2-2.4-1.2-3.1-2.2c-2.3-2.8-4-6.3-4.4-10.9c0-0.4,0-0.9,0-1.3
			c0.1-3.3,1.7-5.9,3.8-7.2c1.1-0.7,2.6-1.3,4.4-1c0.7,0.1,1.5,0.4,2.1,0.6c0.6,0.2,1.4,0.7,2.1,0.6c0.5,0,1-0.3,1.5-0.5
			c1.5-0.5,2.9-1.1,4.8-0.9c2.3,0.3,3.9,1.4,4.9,2.9c-1.9,1.2-3.5,3.1-3.2,6.2C23.5,19.3,25.1,21,27.2,22z"/>
	</g>
</g>
</svg>
