<?xml version="1.0" encoding="utf-8"?>
<!-- Generator: Adobe Illustrator 22.1.0, SVG Export Plug-In . SVG Version: 6.00 Build 0)  -->
<svg version="1.1" id="Layer_1" xmlns="http://www.w3.org/2000/svg" xmlns:xlink="http://www.w3.org/1999/xlink" x="0px" y="0px"
	 viewBox="0 0 30 30" style="enable-background:new 0 0 30 30;" xml:space="preserve">
<style type="text/css">
	.st0{fill:#191919;}
</style>
<g id="_x31_2">
	<path id="icon_21_" class="st0" d="M21.5,9.9l-3.3,3.4L4.8,0.2c4,2.3,10.3,6,10.3,6L21.5,9.9z M28.8,14.1c-0.5-0.3-3.9-2.2-5.7-3.3
		l-3.6,3.7l4.1,4c1.8-1,4.6-2.7,5.2-3C29.5,15,29.5,14.4,28.8,14.1z M18.3,15.8L5.5,28.9c4.1-2.3,9.6-5.5,9.6-5.5l6.8-4L18.3,15.8z
		 M2.2,0.2C1.7-0.3,0.7,0.1,0.7,0.9V29c0,0.8,1,1.2,1.6,0.6L17,14.6L2.2,0.2z"/>
</g>
<g id="Layer_1_1_">
</g>
</svg>
