<?xml version="1.0" encoding="utf-8"?>
<!-- Generator: Adobe Illustrator 28.0.0, SVG Export Plug-In . SVG Version: 6.00 Build 0)  -->
<svg version="1.1" id="레이어_1" xmlns="http://www.w3.org/2000/svg" xmlns:xlink="http://www.w3.org/1999/xlink" x="0px"
	 y="0px" viewBox="0 0 141.77 69.71" style="enable-background:new 0 0 141.77 69.71;" xml:space="preserve">
<style type="text/css">
	.st0{fill:#00AAEA;}
</style>
<g>
	<path class="st0" d="M61.9,39.9h-2.67v-1.81c0-1.12-0.91-2.03-2.03-2.03c-1.12,0-2.03,0.91-2.03,2.03v6.89H42.3
		c-1.05,0-1.9-0.85-1.9-1.9v-4.99c0-1.12-0.91-2.03-2.03-2.03c-1.12,0-2.03,0.91-2.03,2.03v4.99c0,3.29,2.67,5.96,5.96,5.96h12.87
		v3.44c-1.43-0.95-3.15-1.51-5-1.51c-4.99,0-9.06,4.07-9.06,9.06s4.06,9.06,9.06,9.06c4.99,0,9.06-4.06,9.06-9.06
		c0-0.16-0.04-0.3-0.05-0.45c0.01-0.08,0.05-0.15,0.05-0.23V43.96h2.67c1.12,0,2.03-0.91,2.03-2.03S63.03,39.9,61.9,39.9z
		 M50.17,65.02c-2.75,0-5-2.24-5-4.99c0-2.75,2.24-5,5-5c2.75,0,5,2.24,5,5C55.17,62.78,52.93,65.02,50.17,65.02z"/>
	<path class="st0" d="M120.34,52.1c0.37,0,0.74-0.1,1.07-0.31c0.95-0.59,1.24-1.85,0.65-2.8l-7.49-11.98
		c-0.6-0.95-1.85-1.25-2.8-0.65c-0.95,0.59-1.24,1.85-0.65,2.8l7.49,11.98C119,51.76,119.67,52.1,120.34,52.1z"/>
	<path class="st0" d="M127.18,23.38h-9.95l-1.86,4.06h11.8c2,0,3.62,1.62,3.62,3.62v21.48c0,2.63-2.14,4.78-4.78,4.78H92.28V38.09
		c0-1.12-0.91-2.03-2.03-2.03c-1.12,0-2.03,0.91-2.03,2.03v7.29h-4.53v-7.29c0-1.12-0.91-2.03-2.03-2.03
		c-1.12,0-2.03,0.91-2.03,2.03v7.29H70.8v-7.29c0-1.12-0.91-2.03-2.03-2.03c-1.12,0-2.03,0.91-2.03,2.03v21.26
		c0,1.12,0.91,2.03,2.03,2.03h12.89c1.12,0,2.03-0.91,2.03-2.03v-9.91h4.53v9.91c0,1.12,0.91,2.03,2.03,2.03c0,0,0,0,0,0
		c0,0,0,0,0,0h35.78c4.87,0,8.84-3.97,8.84-8.84V31.06C134.87,26.83,131.42,23.38,127.18,23.38z M79.62,57.32H70.8v-7.88h8.82V57.32
		z"/>
	<path class="st0" d="M130.98,7.21c-5.05-3.67-7.37-3.41-9.04-2.78l0.41-0.97c0.44-1.03-0.04-2.23-1.07-2.66
		c-1.04-0.45-2.22,0.04-2.66,1.07l-9.16,21.51H19.94c-3.53,0-6.41,2.88-6.41,6.41v10.92c-0.02,0.02-0.05,0.04-0.07,0.05L2.67,49.53
		c-0.47,0.39-0.75,0.97-0.75,1.58v8.24c0,1.12,0.91,2.03,2.03,2.03h11.61c1.12,0,2.03-0.91,2.03-2.03V29.79
		c0-1.3,1.05-2.35,2.35-2.35h87.78l-9.3,21.83c-0.44,1.03,0.04,2.23,1.07,2.66c0.26,0.11,0.53,0.16,0.8,0.16
		c0.79,0,1.54-0.46,1.87-1.23l14.44-33.91c2.92-3.7,11.38-0.15,11.38-0.15c11.02,3.26,12.73-8.24,12.73-8.24
		C137.71,11.76,130.98,7.21,130.98,7.21z M13.53,57.32H5.99v-5.24l7.54-6.13V57.32z"/>
	<path class="st0" d="M23.17,36.06c-1.09,0.04-1.95,0.94-1.95,2.03v21.26c0,1.12,0.91,2.03,2.03,2.03c1.12,0,2.03-0.91,2.03-2.03
		v-19.3c1.22-0.03,2.41-0.05,3.31-0.06v19.36c0,1.12,0.91,2.03,2.03,2.03c1.12,0,2.03-0.91,2.03-2.03V38.09
		c0-0.55-0.23-1.09-0.63-1.48C31.34,35.95,31.14,35.75,23.17,36.06z"/>
	<path class="st0" d="M5.99,39.44c0-1.12-0.91-2.03-2.03-2.03c-1.12,0-2.03,0.91-2.03,2.03v6.8l4.06-3.33V39.44z"/>
</g>
</svg>
