<?xml version="1.0" encoding="utf-8"?>
<!-- Generator: Adobe Illustrator 22.1.0, SVG Export Plug-In . SVG Version: 6.00 Build 0)  -->
<svg version="1.1" id="레이어_1" xmlns="http://www.w3.org/2000/svg" xmlns:xlink="http://www.w3.org/1999/xlink" x="0px"
	 y="0px" viewBox="0 0 141.8 69.7" style="enable-background:new 0 0 141.8 69.7;" xml:space="preserve">
<style type="text/css">
	.st0{fill:#FFFFFF;}
</style>
<g>
	<path class="st0" d="M61.9,39.9h-2.7v-1.8c0-1.1-0.9-2-2-2s-2,0.9-2,2V45H42.3c-1,0-1.9-0.8-1.9-1.9v-5c0-1.1-0.9-2-2-2s-2,0.9-2,2
		v5c0,3.3,2.7,6,6,6h12.9v3.4c-1.4-1-3.2-1.5-5-1.5c-5,0-9.1,4.1-9.1,9.1s4.1,9.1,9.1,9.1c5,0,9.1-4.1,9.1-9.1c0-0.2,0-0.3,0-0.5
		c0-0.1,0-0.2,0-0.2V44h2.7c1.1,0,2-0.9,2-2S63,39.9,61.9,39.9z M50.2,65c-2.8,0-5-2.2-5-5c0-2.8,2.2-5,5-5c2.8,0,5,2.2,5,5
		C55.2,62.8,52.9,65,50.2,65z"/>
	<path class="st0" d="M120.3,52.1c0.4,0,0.7-0.1,1.1-0.3c0.9-0.6,1.2-1.8,0.7-2.8l-7.5-12c-0.6-1-1.8-1.3-2.8-0.7
		c-0.9,0.6-1.2,1.8-0.7,2.8l7.5,12C119,51.8,119.7,52.1,120.3,52.1z"/>
	<path class="st0" d="M127.2,23.4h-9.9l-1.9,4.1h11.8c2,0,3.6,1.6,3.6,3.6v21.5c0,2.6-2.1,4.8-4.8,4.8H92.3V38.1c0-1.1-0.9-2-2-2
		c-1.1,0-2,0.9-2,2v7.3h-4.5v-7.3c0-1.1-0.9-2-2-2c-1.1,0-2,0.9-2,2v7.3h-8.8v-7.3c0-1.1-0.9-2-2-2c-1.1,0-2,0.9-2,2v21.3
		c0,1.1,0.9,2,2,2h12.9c1.1,0,2-0.9,2-2v-9.9h4.5v9.9c0,1.1,0.9,2,2,2l0,0l0,0H126c4.9,0,8.8-4,8.8-8.8V31.1
		C134.9,26.8,131.4,23.4,127.2,23.4z M79.6,57.3h-8.8v-7.9h8.8V57.3z"/>
	<path class="st0" d="M131,7.2c-5.1-3.7-7.4-3.4-9-2.8l0.4-1c0.4-1,0-2.2-1.1-2.7c-1-0.4-2.2,0-2.7,1.1l-9.2,21.5H19.9
		c-3.5,0-6.4,2.9-6.4,6.4v10.9c0,0-0.1,0-0.1,0L2.7,49.5c-0.5,0.4-0.8,1-0.8,1.6v8.2c0,1.1,0.9,2,2,2h11.6c1.1,0,2-0.9,2-2V29.8
		c0-1.3,1-2.4,2.4-2.4h87.8l-9.3,21.8c-0.4,1,0,2.2,1.1,2.7c0.3,0.1,0.5,0.2,0.8,0.2c0.8,0,1.5-0.5,1.9-1.2L116.6,17
		c2.9-3.7,11.4-0.1,11.4-0.1c11,3.3,12.7-8.2,12.7-8.2C137.7,11.8,131,7.2,131,7.2z M13.5,57.3H6v-5.2l7.5-6.1V57.3z"/>
	<path class="st0" d="M23.2,36.1c-1.1,0-2,0.9-2,2v21.3c0,1.1,0.9,2,2,2s2-0.9,2-2V40c1.2,0,2.4,0,3.3-0.1v19.4c0,1.1,0.9,2,2,2
		s2-0.9,2-2V38.1c0-0.5-0.2-1.1-0.6-1.5C31.3,36,31.1,35.8,23.2,36.1z"/>
	<path class="st0" d="M6,39.4c0-1.1-0.9-2-2-2s-2,0.9-2,2v6.8L6,42.9V39.4z"/>
</g>
</svg>
